<svg width="176" height="52" viewBox="0 0 176 52" fill="none" xmlns="http://www.w3.org/2000/svg">
<path fill-rule="evenodd" clip-rule="evenodd" d="M0 15.6544V15.7826L29.754 29.5467L59.6129 15.7358V15.7011L29.754 1.89091L0 15.6544ZM10.7268 15.7188L29.7546 6.91706L48.7843 15.7188L29.754 24.5199L10.7268 15.7188ZM29.754 34.8926L0 21.3347V26.3493L29.754 39.9382L59.6129 26.3031V21.2879L29.754 34.8926ZM29.754 45.0629L0 31.5037V36.5183L29.754 50.1091L59.6129 36.4722V31.4575L29.754 45.0629Z" fill="white"/>
<path fill-rule="evenodd" clip-rule="evenodd" d="M169.216 25.5037C169.216 24.3409 169.012 23.2566 168.604 22.2509C168.195 21.2452 167.638 20.3653 166.931 19.611C166.225 18.8567 165.4 18.2674 164.458 17.8432C163.516 17.4189 162.511 17.2067 161.443 17.2067C160.375 17.2067 159.37 17.4189 158.428 17.8432C157.486 18.2674 156.661 18.8567 155.955 19.611C155.248 20.3653 154.691 21.2452 154.282 22.2509C153.874 23.2566 153.67 24.3409 153.67 25.5037C153.67 26.6665 153.874 27.7508 154.282 28.7564C154.691 29.7622 155.248 30.6422 155.955 31.3964C156.661 32.1507 157.486 32.74 158.428 33.1642C159.37 33.5886 160.375 33.8007 161.443 33.8007C162.511 33.8007 163.516 33.5886 164.458 33.1642C165.4 32.74 166.225 32.1507 166.931 31.3964C167.638 30.6422 168.195 29.7622 168.604 28.7564C169.012 27.7508 169.216 26.6665 169.216 25.5037ZM176 25.5037C176 27.5465 175.623 29.4401 174.869 31.1843C174.116 32.9285 173.079 34.4371 171.76 35.7099C170.441 36.9827 168.894 37.9884 167.12 38.727C165.345 39.4655 163.453 39.8348 161.443 39.8348C159.433 39.8348 157.549 39.4655 155.79 38.727C154.031 37.9884 152.492 36.9749 151.173 35.6863C149.854 34.3977 148.818 32.8814 148.064 31.1372C147.31 29.3929 146.933 27.5151 146.933 25.5037C146.933 23.5238 147.318 21.6617 148.087 19.9174C148.857 18.1731 149.901 16.6489 151.22 15.3446C152.539 14.0404 154.078 13.019 155.837 12.2804C157.596 11.5419 159.464 11.1726 161.443 11.1726C163.453 11.1726 165.345 11.5419 167.12 12.2804C168.894 13.019 170.441 14.0247 171.76 15.2975C173.079 16.5703 174.116 18.0867 174.869 19.8467C175.623 21.6067 176 23.4923 176 25.5037ZM144.578 38.9862C144.044 39.2377 143.439 39.442 142.764 39.5991C142.089 39.7563 141.39 39.8348 140.668 39.8348C139.663 39.8348 138.697 39.7012 137.77 39.4341C136.844 39.167 136.035 38.7349 135.344 38.1377C134.653 37.5406 134.104 36.7627 133.695 35.8042C133.287 34.8456 133.083 33.6907 133.083 32.3393V0H140.008V31.1607C140.008 32.2921 140.236 33.0699 140.691 33.4943C141.147 33.9185 141.688 34.1307 142.316 34.1307C143.102 34.1307 143.855 33.8949 144.578 33.4235V38.9863V38.9862ZM130.021 11.8326L117.772 44.219C116.861 46.6389 115.668 48.3832 114.192 49.4517C112.716 50.5203 110.957 51.0545 108.915 51.0545C108.601 51.0545 108.256 51.031 107.879 50.9839C107.502 50.9367 107.141 50.866 106.796 50.7717L104.534 44.4548C105.068 44.7062 105.618 44.9025 106.183 45.044C106.748 45.1854 107.282 45.2561 107.785 45.2561C108.853 45.2561 109.826 45.0126 110.706 44.5254C111.585 44.0383 112.26 43.1348 112.731 41.8148L113.674 39.0805L103.168 11.8326H110.564L116.83 29.3693L122.719 11.8326H130.021ZM101.519 7.73125H83.8059V16.4996H101.284V22.4395H83.8059V39.1277H76.6452V1.46136H101.519V7.73125Z" fill="white"/>
</svg>
